<?xml version="1.0" encoding="utf-8"?>
<!-- Generator: Adobe Illustrator 17.0.0, SVG Export Plug-In . SVG Version: 6.00 Build 0)  -->
<!DOCTYPE svg PUBLIC "-//W3C//DTD SVG 1.1//EN" "http://www.w3.org/Graphics/SVG/1.1/DTD/svg11.dtd">
<svg version="1.1" id="Layer_1" xmlns="http://www.w3.org/2000/svg" xmlns:xlink="http://www.w3.org/1999/xlink" x="0px" y="0px"
	 width="75px" height="75.003px" viewBox="0 0 75 75.003" enable-background="new 0 0 75 75.003" xml:space="preserve">
<g>
	<path fill-rule="evenodd" clip-rule="evenodd" fill="#FFFFFF" d="M37.501,0C16.787,0,0,16.789,0,37.502
		c0,20.712,16.787,37.501,37.501,37.501C58.213,75.003,75,58.214,75,37.502C75,16.789,58.213,0,37.501,0 M37.501,71.593
		c-18.83,0-34.094-15.261-34.094-34.091c0-18.828,15.264-34.093,34.094-34.093c18.832,0,34.09,15.265,34.09,34.093
		C71.591,56.332,56.333,71.593,37.501,71.593"/>
	<g>
		<path fill="#FFFFFF" d="M51.598,45.062c0,3.652-2.971,6.612-6.627,6.612H30.016c-3.638,0-6.598-2.961-6.598-6.612v-14.95
			c0-3.652,2.96-6.622,6.598-6.622h14.955c3.656,0,6.627,2.97,6.627,6.622V45.062z M44.804,20.23H30.188
			c-5.493,0-9.963,4.461-9.963,9.976v14.595c0,5.511,4.47,9.97,9.963,9.97h14.616c5.489,0,9.97-4.459,9.97-9.97V30.206
			C54.775,24.691,50.293,20.23,44.804,20.23"/>
		<path fill="#FFFFFF" d="M37.499,43.407c-3.216,0-5.815-2.614-5.815-5.817c0-3.209,2.599-5.803,5.815-5.803
			c3.221,0,5.817,2.594,5.817,5.803C43.316,40.793,40.72,43.407,37.499,43.407 M37.499,28.624c-4.95,0-8.96,4.015-8.96,8.966
			c0,4.945,4.01,8.962,8.96,8.962c4.958,0,8.97-4.018,8.97-8.962C46.469,32.639,42.457,28.624,37.499,28.624"/>
		<path fill="#FFFFFF" d="M46.775,26.186c-1.165,0-2.093,0.948-2.093,2.084c0,1.168,0.928,2.095,2.093,2.095
			c1.138,0,2.07-0.927,2.07-2.095C48.845,27.133,47.913,26.186,46.775,26.186"/>
	</g>
</g>
</svg>
