<?xml version="1.0" encoding="utf-8"?>
<!DOCTYPE svg PUBLIC "-//W3C//DTD SVG 1.1//EN" "http://www.w3.org/Graphics/SVG/1.1/DTD/svg11.dtd">
<svg version="1.1" id="Layer_1" xmlns="http://www.w3.org/2000/svg" xmlns:xlink="http://www.w3.org/1999/xlink" x="0px" y="0px"
	 width="669.697px" height="231.818px" viewBox="0 0 669.697 231.818" enable-background="new 0 0 669.697 231.818"
	 xml:space="preserve">
<g>
	<g>
		<path fill="#000000" d="M8.708,218.019V41.887c0-1.388,0.541-2.626,1.628-3.712c1.085-1.085,2.322-1.628,3.712-1.628h93.407
			c1.388,0,2.626,0.543,3.713,1.628c1.085,1.087,1.628,2.324,1.628,3.712v26.707c0,1.39-0.543,2.627-1.628,3.712
			c-1.087,1.087-2.325,1.628-3.713,1.628H48.702c-1.738,0-2.606,0.912-2.606,2.736v31.917c0,1.738,0.868,2.65,2.606,2.736h56.019
			c1.388,0,2.625,0.521,3.712,1.563c1.085,1.043,1.628,2.302,1.628,3.778v26.707c0,1.39-0.521,2.628-1.563,3.713
			c-1.043,1.087-2.302,1.629-3.778,1.629H48.702c-1.738,0-2.606,0.868-2.606,2.605v66.702c0,1.39-0.544,2.627-1.628,3.712
			c-1.087,1.087-2.324,1.628-3.712,1.628H14.049c-1.39,0-2.627-0.541-3.712-1.628C9.25,220.647,8.708,219.409,8.708,218.019z"/>
		<path fill="#000000" d="M144.753,218.019V41.887c0-1.388,0.542-2.626,1.628-3.712c1.085-1.085,2.322-1.628,3.712-1.628h96.925
			c1.388,0,2.606,0.543,3.647,1.628c1.042,1.087,1.563,2.324,1.563,3.712v26.707c0,1.39-0.521,2.627-1.563,3.712
			c-1.042,1.087-2.259,1.628-3.647,1.628h-62.272c-1.738,0-2.606,0.912-2.606,2.736v31.917c0,1.738,0.868,2.65,2.606,2.736h60.057
			c1.388,0,2.626,0.521,3.712,1.563c1.085,1.043,1.629,2.302,1.629,3.778v26.707c0,1.39-0.521,2.628-1.563,3.713
			c-1.043,1.087-2.302,1.629-3.778,1.629h-60.057c-1.738,0-2.606,0.868-2.606,2.605v32.048c0,1.738,0.868,2.605,2.606,2.605h63.314
			c1.387,0,2.626,0.544,3.712,1.628c1.085,1.087,1.629,2.325,1.629,3.713v26.707c0,1.39-0.544,2.627-1.629,3.712
			c-1.087,1.087-2.325,1.628-3.712,1.628h-97.967c-1.39,0-2.627-0.541-3.712-1.628C145.295,220.647,144.753,219.409,144.753,218.019
			z"/>
		<path fill="#000000" d="M291.527,218.019V41.887c0-1.388,0.542-2.626,1.629-3.712c1.085-1.085,2.322-1.628,3.712-1.628h26.706
			c1.388,0,2.626,0.543,3.712,1.628c1.085,1.087,1.629,2.324,1.629,3.712v176.132c0,1.39-0.544,2.627-1.629,3.712
			c-1.087,1.087-2.324,1.628-3.712,1.628h-26.706c-1.39,0-2.627-0.541-3.712-1.628C292.069,220.647,291.527,219.409,291.527,218.019
			z"/>
		<path fill="#000000" d="M372.137,218.019V41.887c0-1.388,0.542-2.626,1.629-3.712c1.085-1.085,2.322-1.628,3.712-1.628h58.754
			c7.642,0,14.871,1.477,21.692,4.429c6.816,2.954,12.767,6.969,17.848,12.05c5.081,5.081,9.097,11.031,12.049,17.848
			c2.953,6.819,4.429,14.049,4.429,21.691c0,10.337-2.235,19.196-6.707,26.576c-4.474,7.383-11.488,14.288-21.04,20.714
			c-2,1.39-2.996,2.715-2.996,3.973c0,1.26,0.433,2.888,1.302,4.885l28.66,66.7c0.868,1.999,0.889,3.822,0.065,5.471
			c-0.826,1.651-2.54,2.475-5.146,2.475h-27.488c-2.172,0-3.822-0.499-4.951-1.498c-1.128-0.998-2.083-2.28-2.866-3.843
			l-27.227-65.92c-0.349-0.694-0.87-1.433-1.563-2.214c-0.697-0.782-1.739-1.172-3.128-1.172h-7.035
			c-1.738,0-2.606,0.868-2.606,2.605v66.702c0,1.39-0.544,2.627-1.629,3.712c-1.087,1.087-2.324,1.628-3.712,1.628h-26.706
			c-1.39,0-2.627-0.541-3.712-1.628C372.678,220.647,372.137,219.409,372.137,218.019z M409.525,108.588
			c0,1.738,0.868,2.65,2.606,2.736h24.101c5.124,0,9.51-1.824,13.158-5.471c3.648-3.648,5.472-8.077,5.472-13.289
			c0-5.123-1.824-9.51-5.472-13.158c-3.648-3.647-8.035-5.471-13.158-5.471h-24.101c-1.738,0-2.606,0.912-2.606,2.736V108.588z"/>
		<path fill="#000000" d="M519.021,218.019l47.81-177.435c0.522-2.692,2.215-4.039,5.081-4.039h35.696
			c2.866,0,4.559,1.347,5.08,4.039l47.551,177.435c0.085,0.348,0.13,0.696,0.13,1.041c0.086,0.782-0.217,1.609-0.912,2.475
			c-0.869,1.217-2.389,1.824-4.559,1.824h-28.009c-2.52,0-4.213-1.346-5.081-4.038l-8.337-27.488
			c-0.349-1.043-0.783-1.954-1.303-2.735c-0.521-0.783-1.433-1.173-2.735-1.173h-40.516c-2.172,0-3.518,1.302-4.039,3.908
			l-7.426,27.488c-0.521,2.693-2.214,4.038-5.081,4.038h-28.009c-2.172,0-3.693-0.607-4.559-1.824
			c-0.609-0.867-0.912-1.694-0.912-2.475C518.89,218.715,518.933,218.367,519.021,218.019z M575.039,147.54
			c-0.087,0.436-0.13,0.826-0.13,1.173c0,1.216,0.782,1.823,2.345,1.823h24.492c1.563,0,2.345-0.607,2.345-1.823
			c0-0.347-0.087-0.737-0.261-1.173l-12.767-63.965c-0.175-0.694-0.609-1.042-1.302-1.042h-0.521c-0.697,0-1.13,0.349-1.303,1.042
			L575.039,147.54z"/>
	</g>
	<g>
		<path fill="#000000" d="M8.708,22.328V7.163c0-0.119,0.047-0.226,0.14-0.32c0.094-0.093,0.2-0.139,0.321-0.139h5.058
			c0.658,0,1.281,0.127,1.868,0.381c0.587,0.253,1.1,0.6,1.537,1.037c0.438,0.438,0.783,0.95,1.038,1.537
			c0.253,0.588,0.381,1.21,0.381,1.868c0,0.89-0.193,1.653-0.578,2.289c-0.384,0.636-0.989,1.23-1.811,1.784
			c-0.172,0.119-0.258,0.234-0.258,0.342c0,0.109,0.037,0.249,0.112,0.421l2.468,5.743c0.074,0.172,0.076,0.329,0.005,0.47
			c-0.071,0.142-0.219,0.214-0.443,0.214h-2.367c-0.186,0-0.329-0.043-0.425-0.129c-0.097-0.086-0.18-0.197-0.247-0.331
			l-2.344-5.676c-0.03-0.06-0.075-0.124-0.135-0.191c-0.06-0.067-0.15-0.101-0.269-0.101h-0.605c-0.15,0-0.224,0.074-0.224,0.224
			v5.743c0,0.119-0.047,0.226-0.14,0.319c-0.093,0.093-0.2,0.14-0.319,0.14H9.169c-0.121,0-0.226-0.047-0.321-0.14
			C8.755,22.554,8.708,22.447,8.708,22.328z M11.928,12.905c0,0.15,0.074,0.228,0.224,0.236h2.075c0.441,0,0.819-0.157,1.133-0.47
			c0.314-0.314,0.47-0.695,0.47-1.145c0-0.441-0.156-0.818-0.47-1.132c-0.314-0.314-0.692-0.471-1.133-0.471h-2.075
			c-0.15,0-0.224,0.079-0.224,0.236V12.905z"/>
		<path fill="#000000" d="M25.973,22.328V7.163c0-0.119,0.047-0.226,0.14-0.32c0.094-0.093,0.2-0.139,0.321-0.139h8.345
			c0.119,0,0.224,0.046,0.314,0.139c0.089,0.094,0.134,0.201,0.134,0.32v2.299c0,0.119-0.045,0.226-0.134,0.319
			c-0.09,0.093-0.195,0.14-0.314,0.14h-5.362c-0.15,0-0.224,0.079-0.224,0.236v2.747c0,0.15,0.074,0.228,0.224,0.236h5.171
			c0.119,0,0.226,0.045,0.319,0.135c0.093,0.09,0.14,0.198,0.14,0.325v2.3c0,0.119-0.045,0.226-0.135,0.319
			c-0.089,0.093-0.198,0.14-0.325,0.14h-5.171c-0.15,0-0.224,0.074-0.224,0.224v2.759c0,0.15,0.074,0.224,0.224,0.224h5.451
			c0.121,0,0.226,0.047,0.321,0.14c0.093,0.094,0.139,0.2,0.139,0.319v2.3c0,0.119-0.046,0.226-0.139,0.319
			c-0.094,0.093-0.2,0.14-0.321,0.14h-8.434c-0.12,0-0.226-0.047-0.321-0.14C26.02,22.554,25.973,22.447,25.973,22.328z"/>
		<path fill="#000000" d="M41.378,7.264c-0.007-0.038-0.01-0.074-0.01-0.112c0.007-0.083,0.034-0.169,0.079-0.258
			c0.074-0.128,0.198-0.191,0.37-0.191h2.523c0.247,0,0.393,0.115,0.438,0.348l2.535,10.779c0.03,0.105,0.083,0.156,0.157,0.156
			h0.135c0.074,0,0.13-0.051,0.168-0.156l2.501-10.779c0.045-0.233,0.191-0.348,0.438-0.348h2.523c0.187,0,0.314,0.06,0.381,0.179
			c0.045,0.083,0.068,0.172,0.068,0.269c0,0.038-0.004,0.074-0.012,0.112L49.701,22.44c-0.074,0.232-0.221,0.348-0.438,0.348h-3.466
			c-0.232,0-0.377-0.116-0.437-0.348L41.378,7.264z"/>
		<path fill="#000000" d="M60.071,22.328V7.163c0-0.119,0.047-0.226,0.14-0.32c0.093-0.093,0.2-0.139,0.319-0.139h2.299
			c0.119,0,0.226,0.046,0.32,0.139c0.093,0.094,0.139,0.201,0.139,0.32v15.164c0,0.119-0.046,0.226-0.139,0.319
			c-0.094,0.093-0.201,0.14-0.32,0.14h-2.299c-0.119,0-0.226-0.047-0.319-0.14C60.118,22.554,60.071,22.447,60.071,22.328z"/>
		<path fill="#000000" d="M70.118,18.004v-0.685c0-0.119,0.046-0.226,0.139-0.32c0.093-0.093,0.199-0.14,0.317-0.14l2.305,0.007
			c0.119,0,0.225,0.044,0.317,0.134c0.093,0.09,0.139,0.198,0.139,0.326v0.684c0,0.538,0.195,0.987,0.582,1.346
			c0.388,0.359,0.944,0.538,1.666,0.538c0.686,0,1.237-0.18,1.651-0.539c0.414-0.359,0.621-0.81,0.621-1.349
			c0-0.494-0.181-0.875-0.543-1.141c-0.362-0.266-0.975-0.501-1.84-0.703c-0.716-0.15-1.39-0.352-2.021-0.607
			c-0.632-0.255-1.175-0.573-1.631-0.955c-0.457-0.382-0.819-0.846-1.087-1.394c-0.269-0.547-0.404-1.188-0.404-1.922
			c0-0.67,0.131-1.3,0.393-1.888c0.261-0.588,0.627-1.1,1.098-1.536c0.47-0.436,1.023-0.778,1.658-1.029
			c0.635-0.249,1.338-0.374,2.106-0.374c0.759,0,1.462,0.126,2.108,0.376c0.647,0.25,1.203,0.594,1.668,1.032
			c0.465,0.438,0.827,0.951,1.088,1.542c0.26,0.591,0.39,1.223,0.39,1.896v0.348c0,0.119-0.046,0.226-0.139,0.319
			c-0.092,0.094-0.198,0.14-0.317,0.14h-2.305c-0.118,0-0.224-0.047-0.317-0.141c-0.093-0.094-0.139-0.201-0.139-0.323v-0.351
			c0-0.46-0.175-0.865-0.526-1.216c-0.351-0.351-0.854-0.526-1.51-0.526c-0.641,0-1.133,0.153-1.476,0.461
			c-0.344,0.307-0.514,0.692-0.514,1.157c0,0.442,0.19,0.798,0.57,1.067c0.38,0.27,0.869,0.465,1.465,0.586
			c0.791,0.172,1.528,0.383,2.212,0.635c0.683,0.251,1.269,0.581,1.76,0.989c0.489,0.409,0.877,0.905,1.161,1.489
			c0.284,0.584,0.425,1.275,0.425,2.069c0,0.748-0.138,1.43-0.415,2.044c-0.275,0.614-0.662,1.143-1.159,1.588
			c-0.497,0.445-1.09,0.792-1.782,1.038c-0.69,0.247-1.439,0.371-2.247,0.371c-0.792,0-1.522-0.131-2.19-0.393
			c-0.668-0.262-1.243-0.62-1.725-1.073c-0.483-0.452-0.861-0.986-1.137-1.599C70.256,19.367,70.118,18.708,70.118,18.004z"/>
		<path fill="#000000" d="M86.863,9.462V7.163c0-0.119,0.046-0.226,0.139-0.32c0.093-0.093,0.2-0.139,0.319-0.139h9.412
			c0.119,0,0.226,0.046,0.319,0.139c0.093,0.094,0.139,0.201,0.139,0.32v2.299c0,0.119-0.046,0.226-0.139,0.319
			c-0.093,0.093-0.2,0.14-0.318,0.14h-2.863c-0.149,0-0.227,0.079-0.235,0.236v12.17c0,0.119-0.045,0.226-0.135,0.319
			c-0.09,0.093-0.199,0.14-0.327,0.14h-2.307c-0.121,0-0.225-0.047-0.315-0.14c-0.09-0.093-0.135-0.2-0.135-0.319v-12.17
			c0-0.15-0.077-0.228-0.235-0.236h-2.862c-0.119,0-0.226-0.045-0.319-0.135C86.909,9.698,86.863,9.589,86.863,9.462z"/>
		<path fill="#000000" d="M101.148,22.328l4.116-15.277c0.045-0.233,0.192-0.348,0.438-0.348h3.073c0.247,0,0.393,0.115,0.438,0.348
			l4.094,15.277c0.007,0.029,0.01,0.06,0.01,0.089c0.007,0.068-0.019,0.139-0.079,0.214c-0.074,0.105-0.205,0.157-0.392,0.157
			h-2.412c-0.217,0-0.362-0.116-0.437-0.348l-0.718-2.367c-0.029-0.089-0.067-0.168-0.112-0.236
			c-0.045-0.067-0.124-0.101-0.236-0.101h-3.488c-0.188,0-0.303,0.112-0.348,0.336l-0.64,2.367
			c-0.044,0.232-0.191,0.348-0.437,0.348h-2.412c-0.186,0-0.317-0.052-0.392-0.157c-0.052-0.074-0.079-0.146-0.079-0.214
			C101.137,22.387,101.14,22.357,101.148,22.328z M105.971,16.259c-0.007,0.038-0.011,0.071-0.011,0.102
			c0,0.105,0.068,0.157,0.202,0.157h2.108c0.135,0,0.202-0.052,0.202-0.157c0-0.03-0.007-0.064-0.022-0.102l-1.1-5.507
			c-0.015-0.06-0.052-0.089-0.112-0.089h-0.045c-0.06,0-0.096,0.029-0.112,0.089L105.971,16.259z"/>
	</g>
</g>
</svg>
