<?xml version="1.0" encoding="utf-8"?>
<!-- Generator: Adobe Illustrator 17.0.0, SVG Export Plug-In . SVG Version: 6.00 Build 0)  -->
<!DOCTYPE svg PUBLIC "-//W3C//DTD SVG 1.1//EN" "http://www.w3.org/Graphics/SVG/1.1/DTD/svg11.dtd">
<svg version="1.1" id="Layer_1" xmlns="http://www.w3.org/2000/svg" xmlns:xlink="http://www.w3.org/1999/xlink" x="0px" y="0px"
	 width="75px" height="75.003px" viewBox="0 0 75 75.003" enable-background="new 0 0 75 75.003" xml:space="preserve">
<path fill-rule="evenodd" clip-rule="evenodd" fill="#FFFFFF" d="M37.5,0.09C16.788,0.09,0,16.877,0,37.589
	c0,20.712,16.788,37.498,37.5,37.498c20.712,0,37.5-16.786,37.5-37.498C75,16.877,58.212,0.09,37.5,0.09 M37.5,71.679
	c-18.828,0-34.091-15.261-34.091-34.09c0-18.827,15.262-34.09,34.091-34.09c18.832,0,34.089,15.263,34.089,34.09
	C71.589,56.417,56.332,71.679,37.5,71.679 M40.888,29.49c0-1.378,0.143-2.116,2.266-2.116h2.833v-5.129h-4.535
	c-5.446,0-7.369,2.567-7.369,6.88v3.332h-3.399v5.132h3.399v15.344h6.799V37.589h4.537l0.601-5.132h-5.138L40.888,29.49z"/>
</svg>
